<svg 
 xmlns="http://www.w3.org/2000/svg"
 xmlns:xlink="http://www.w3.org/1999/xlink"
 width="445.5px" height="375.5px" viewBox="0 0 445.5 375.5">
<path id="ac-logo-path" fill-rule="evenodd" stroke="rgb(255, 255, 255)" stroke-width="19px" stroke-linecap="butt" stroke-linejoin="miter" fill="none"
 d="M395.500,78.500 C383.902,78.500 374.500,69.098 374.500,57.500 C374.500,45.902 383.902,36.500 395.500,36.500 C407.098,36.500 416.500,45.902 416.500,57.500 C416.500,69.098 407.098,78.500 395.500,78.500 ZM335.129,340.911 L369.771,320.913 L370.271,321.779 L335.629,341.777 L335.129,340.911 ZM335.473,24.982 L269.587,163.734 L268.684,163.305 L334.898,23.862 L335.494,24.145 L335.626,23.916 L370.270,43.912 L369.770,44.778 L335.473,24.982 ZM168.500,61.500 C156.902,61.500 147.500,52.098 147.500,40.500 C147.500,28.902 156.902,19.500 168.500,19.500 C180.098,19.500 189.500,28.902 189.500,40.500 C189.500,52.098 180.098,61.500 168.500,61.500 ZM166.002,62.174 L51.912,306.884 L51.898,306.878 C57.671,310.620 61.500,317.107 61.500,324.500 C61.500,336.098 52.098,345.500 40.500,345.500 C28.902,345.500 19.500,336.098 19.500,324.500 C19.500,312.902 28.902,303.500 40.500,303.500 C44.351,303.500 47.948,304.554 51.051,306.363 L165.096,61.751 L166.002,62.174 ZM207.500,249.500 L87.500,249.500 L87.500,248.500 L207.500,248.500 L207.500,249.500 ZM236.750,304.157 L235.844,304.580 L211.748,252.924 L212.654,252.501 L236.750,304.157 ZM248.500,303.500 C260.098,303.500 269.500,312.902 269.500,324.500 C269.500,336.098 260.098,345.500 248.500,345.500 C236.902,345.500 227.500,336.098 227.500,324.500 C227.500,312.902 236.902,303.500 248.500,303.500 ZM175.955,66.906 L334.991,342.282 L334.125,342.782 L175.090,67.406 L175.955,66.906 ZM395.500,282.500 C407.098,282.500 416.500,291.902 416.500,303.500 C416.500,315.098 407.098,324.500 395.500,324.500 C383.902,324.500 374.500,315.098 374.500,303.500 C374.500,291.902 383.902,282.500 395.500,282.500 Z"/>
</svg>